<svg width="662" height="121" viewBox="0 0 662 121" fill="none" xmlns="http://www.w3.org/2000/svg">
<g clip-path="url(#clip0)">
<path d="M22.3027 55.9189H47.5765V0H52.5821V29.6302H72.3799V50.8999H52.5751V55.9189H78.2139V0H83.1142V55.9189H89.0957V29.7495H94.1153V51.0473H103.846V29.6302H108.865V55.9189H114.903V29.6302L135.88 29.6933V43.9995L119.965 43.9433L119.923 50.8999H130.102L130.095 46.2739H135.817V55.9189H140.717V51.1666H155.804V43.9714L140.745 43.9082L140.774 29.6653L160.824 29.7214V34.3334L146.516 34.2772V39.3384L160.824 39.4016V55.9189H166.89V29.6302L186.695 29.7214V43.9995L171.818 43.9714V51.1385H181.647V46.5406H186.695V55.9189H192.697V51.1245L207.637 51.0683V43.9714H192.697V29.6302L212.656 29.5108V34.4106H197.717V39.3103L212.656 39.4297V55.9189H218.568V51.0683H233.507V43.9714H218.568V29.6302H238.408V34.5299H223.468V39.4297H238.408V55.9189H244.382V29.7214H249.402V55.9189H255.376V29.5459L265.338 29.5178L265.317 34.6492H261.828H260.993H260.368L260.424 50.963L270.316 50.9209V37.5414V34.6492V29.5459H275.181V55.9189H281.183V29.574H286.175H290.043H301.143V50.7173H296.242L296.2 34.6773L286.294 34.6492V55.9189L307.117 55.8558V50.8086H322.085V43.9082H307.117V29.574H326.922V34.5018H311.954V39.4297H326.922V55.8558H347.983" stroke="#251d33" stroke-width="1.5" stroke-miterlimit="10"/>
<path d="M350.853 58.9332C352.438 58.9332 353.722 57.6493 353.722 56.0655C353.722 54.4818 352.438 53.1979 350.853 53.1979C349.268 53.1979 347.983 54.4818 347.983 56.0655C347.983 57.6493 349.268 58.9332 350.853 58.9332Z" stroke="#251d33" stroke-width="1.5" stroke-miterlimit="10"/>
</g>
<defs>
<clipPath id="clip0">
<rect width="677" height="121" fill="white" transform="translate(-15)"/>
</clipPath>
</defs>
</svg>
