<svg width="580" height="136" viewBox="0 0 580 136" fill="none" xmlns="http://www.w3.org/2000/svg">
<g clip-path="url(#clip0_420:8)">
<path d="M35.0918 84.1095H73.0958V0H80.6227V44.5677H110.393V76.5601H80.6121V84.1095H119.165V0H126.534V84.1095H135.528V44.7472H143.076V76.7818H157.707V44.5677H165.256V84.1095H174.334V44.5677L205.878 44.6627V66.1811L181.946 66.0966L181.882 76.5601H197.189L197.179 69.602H205.783V84.1095H213.151V76.9613H235.837V66.1388L213.193 66.0438L213.236 44.6205L243.385 44.7049V51.6419L221.871 51.5574V59.1702L243.385 59.2652V84.1095H252.506V44.5677L282.287 44.7049V66.1811L259.917 66.1388V76.9191H274.696V70.0033H282.287V84.1095H291.313V76.898L313.777 76.8135V66.1388H291.313V44.5677L321.325 44.3882V51.7581H298.861V59.1279L321.325 59.3074V84.1095H330.214V76.8135H352.679V66.1388H330.214V44.5677H360.047V51.9376H337.583V59.3074H360.047V84.1095H369.031V44.7049H376.579V84.1095H385.563V44.441L400.543 44.3987L400.511 52.1171H395.264H394.008H393.068L393.153 76.6551L408.027 76.5918V56.4672V52.1171V44.441H415.343V84.1095H424.369V44.4832H431.875H437.691H454.382V76.2856H447.013L446.95 52.1593L432.054 52.1171V84.1095L463.365 84.0145V76.4229H485.872V66.0438H463.365V44.4832H493.146V51.8953H470.639V59.3074H493.146V84.0145H524.816" stroke="#251D33" stroke-width="2" stroke-miterlimit="10"/>
<path d="M529.13 88.6433C531.513 88.6433 533.445 86.7122 533.445 84.33C533.445 81.9478 531.513 80.0167 529.13 80.0167C526.747 80.0167 524.815 81.9478 524.815 84.33C524.815 86.7122 526.747 88.6433 529.13 88.6433Z" stroke="#251D33" stroke-width="2" stroke-miterlimit="10"/>
</g>
<defs>
<clipPath id="clip0_420:8">
<rect width="1018" height="182" fill="white" transform="translate(-21)"/>
</clipPath>
</defs>
</svg>
